<?xml version="1.0" standalone="no"?>
<!DOCTYPE svg PUBLIC "-//W3C//DTD SVG 20010904//EN"
 "http://www.w3.org/TR/2001/REC-SVG-20010904/DTD/svg10.dtd">
<svg version="1.0" xmlns="http://www.w3.org/2000/svg"
 width="800.000000pt" height="800.000000pt" viewBox="0 0 800.000000 800.000000"
 preserveAspectRatio="xMidYMid meet">
<metadata>
Created by potrace 1.14, written by Peter Selinger 2001-2017
</metadata>
<g transform="translate(0.000000,800.000000) scale(0.100000,-0.100000)"
fill="#000000" stroke="none">
<path d="M819 7595 c-25 -6 -60 -20 -77 -30 -48 -28 -97 -103 -111 -166 -17
-82 -17 -6707 1 -6788 23 -108 91 -175 203 -202 84 -21 1392 -20 1470 1 98 26
162 93 189 197 14 55 16 204 14 1391 -2 732 0 1328 5 1325 4 -2 7 -9 7 -15 0
-10 81 -240 100 -283 15 -33 113 -294 162 -430 15 -44 41 -114 57 -155 16 -41
53 -138 81 -215 28 -77 55 -149 60 -160 5 -11 20 -51 34 -90 14 -38 31 -83 37
-100 7 -16 13 -32 13 -35 1 -3 7 -18 13 -35 18 -43 203 -540 225 -604 24 -68
66 -129 112 -164 70 -54 111 -58 592 -54 242 2 448 6 459 9 11 4 25 7 31 7 6
1 32 15 57 32 68 45 87 81 181 344 37 101 282 758 295 791 5 11 55 144 111
295 56 151 105 283 110 294 5 11 25 65 46 120 20 55 47 127 59 160 13 33 42
112 65 175 24 63 45 118 49 122 3 4 5 -590 4 -1320 -2 -1207 -1 -1333 14
-1397 20 -82 52 -133 108 -168 77 -49 94 -50 825 -52 617 -1 692 1 753 16 71
18 126 52 154 97 10 15 21 30 26 33 5 3 8 9 7 13 -1 3 4 32 11 64 19 87 20
6682 1 6766 -28 125 -88 189 -200 214 -76 17 -1678 17 -1754 0 -49 -11 -148
-69 -148 -87 0 -5 -8 -18 -19 -30 -10 -11 -31 -56 -46 -99 -14 -42 -63 -178
-107 -302 -43 -124 -93 -263 -109 -310 -17 -47 -39 -107 -49 -135 -10 -27 -48
-135 -85 -240 -36 -104 -77 -219 -90 -255 -13 -36 -40 -112 -60 -170 -20 -58
-43 -121 -50 -140 -8 -19 -57 -159 -110 -310 -53 -151 -103 -291 -110 -310
-17 -45 -48 -131 -125 -350 -77 -219 -109 -309 -120 -335 -10 -23 -130 -392
-135 -416 -16 -75 -45 -144 -45 -107 0 16 -172 548 -189 583 -5 11 -32 83 -59
160 -43 118 -130 361 -203 560 -76 211 -131 362 -133 370 -2 6 -6 17 -9 25 -4
8 -25 67 -48 130 -22 63 -54 151 -70 195 -17 44 -31 85 -33 90 -2 6 -8 23 -14
38 -7 16 -12 31 -12 35 0 4 -15 48 -34 97 -19 50 -48 131 -66 180 -17 50 -35
99 -40 110 -5 11 -41 110 -80 220 -39 110 -75 209 -80 220 -5 11 -25 65 -44
120 -74 216 -120 331 -144 363 -36 47 -98 86 -160 100 -79 18 -1709 15 -1773
-3z"/>
</g>
</svg>
